<svg xmlns="http://www.w3.org/2000/svg" width="800" height="800" viewBox="0 0 800 800" version="1.1">
	<path d="M 373.500 23.494 C 339.284 29.566, 312.455 44.046, 286.318 70.546 C 269.929 87.162, 263.735 95.799, 254.078 115.500 C 248.657 126.560, 245.107 136.540, 241.450 151.007 C 236.988 168.660, 236.559 176.015, 236.529 235.486 C 236.500 290.691, 236.528 291.478, 238.500 291.852 C 239.600 292.061, 240.725 292.527, 241 292.889 C 241.275 293.250, 242.737 294.334, 244.250 295.296 C 245.762 296.259, 247 297.465, 247 297.976 C 247 298.488, 242.838 300.258, 237.750 301.910 C 232.662 303.562, 225.350 306.091, 221.500 307.531 C 217.650 308.971, 211.613 311.056, 208.085 312.165 C 193.935 316.614, 186.964 321.452, 179.821 331.781 C 175.929 337.411, 171.632 348.020, 170.215 355.500 C 166.697 374.069, 166.671 374.779, 167.443 431.996 C 167.863 463.073, 168.371 526.975, 168.573 574 C 168.967 666.027, 169.252 671.552, 174.323 685.500 C 176.454 691.363, 186.597 707.358, 192.947 714.872 C 200.490 723.796, 201.610 724.861, 213.500 734.414 C 233.497 750.479, 252.935 760.938, 271.500 765.618 C 281.286 768.086, 308.078 768.133, 325 765.712 C 338.138 763.833, 358.366 761.120, 378.500 758.537 C 411.513 754.301, 439.305 750.671, 456 748.414 C 466.175 747.039, 481.829 745.045, 490.787 743.984 C 512.094 741.461, 543.088 737.049, 560.799 734.019 C 574.315 731.705, 599.106 719.249, 606.434 711.089 C 607.498 709.905, 609.838 708.027, 611.635 706.917 C 615.387 704.597, 615.960 704.786, 627.178 712.037 C 632.804 715.673, 636.155 716.968, 647.616 719.935 C 652.751 721.264, 677.667 721.328, 686.731 720.035 C 690.454 719.503, 699.575 718.333, 707 717.433 C 731.487 714.465, 748.327 711.265, 749.838 709.291 C 750.984 707.795, 751.105 696.222, 750.574 639 C 749.897 566.039, 749.481 559.578, 744.740 548.500 C 739.410 536.045, 728.446 524.224, 717.281 518.896 C 705.484 513.265, 698.470 512.518, 668.174 513.663 C 653.503 514.217, 640.487 514.306, 639.250 513.860 L 637 513.050 636.829 439.775 C 636.735 399.474, 636.597 365.600, 636.523 364.500 C 634.493 334.421, 621.048 315.219, 591.351 299.982 C 582.688 295.537, 580.054 294.666, 573.351 294.027 C 569.033 293.616, 566.272 293.217, 567.215 293.140 C 571.179 292.817, 571.335 290.500, 570.696 241.526 C 570.245 206.921, 569.677 191.859, 568.548 184.500 C 561.862 140.928, 543.585 104.252, 514.125 75.291 C 483.502 45.186, 454.630 29.456, 419 23.464 C 408.686 21.730, 383.348 21.746, 373.500 23.494 M 404.500 36.640 C 390.630 37.964, 367.596 43.451, 364.550 46.156 C 364.028 46.620, 362.790 47, 361.800 47 C 360.810 47, 360 47.450, 360 48 C 360 48.550, 359.100 49, 358 49 C 356.900 49, 356 49.417, 356 49.927 C 356 50.436, 355.438 51.042, 354.750 51.272 C 354.063 51.502, 354.772 51.492, 356.326 51.249 C 359.050 50.824, 358.978 50.982, 354.326 55.654 C 351.025 58.968, 349.523 61.290, 349.573 63 C 349.614 64.375, 349.164 66.136, 348.573 66.913 C 347.791 67.942, 347.839 68.439, 348.750 68.746 C 349.438 68.977, 350 69.756, 350 70.476 C 350 72.603, 352.550 72.951, 353.774 70.990 C 354.396 69.994, 356.389 68.870, 358.202 68.492 C 360.016 68.113, 362.625 67.072, 364 66.178 C 365.375 65.284, 366.725 64.523, 367 64.488 C 367.275 64.453, 369.075 63.701, 371 62.818 C 374.824 61.064, 389.711 56.467, 394.500 55.562 C 420.805 50.591, 451.700 55.424, 474.782 68.121 C 516.411 91.020, 544.572 133.137, 552.598 184.500 C 554.005 193.507, 554.394 203.416, 555.543 259.489 C 555.978 280.725, 556.499 289.696, 557.328 290.224 C 560.848 292.463, 560.914 291.754, 560.977 251.532 C 561.011 229.824, 561.305 211.369, 561.630 210.521 C 562.622 207.936, 560.039 182.268, 557.452 169 C 551.485 138.397, 538.349 110.401, 518.517 86.020 C 515.640 82.483, 500.064 66.917, 496.500 64.016 C 488.449 57.464, 471.317 48.564, 458.003 44.016 C 442.262 38.639, 418.242 35.328, 404.500 36.640 M 279.262 82.574 C 271.219 88.913, 256.111 116.186, 249.659 136.014 C 241.105 162.303, 239.746 178.260, 240.630 242.042 L 241.319 291.751 247.293 292.293 C 254.310 292.929, 256.369 292.382, 255.471 290.121 C 254.507 287.694, 254.962 193.102, 255.981 184.169 C 257.321 172.418, 259.722 159.504, 262.469 149.278 C 266.967 132.535, 276.647 108.865, 282.695 99.823 C 286.721 93.805, 288 90.508, 288 86.153 C 288 79.651, 284.691 78.296, 279.262 82.574 M 395 87.850 C 392.310 88.405, 394.046 88.748, 402.500 89.332 C 418.722 90.454, 428.340 92.782, 444.667 99.541 C 453.974 103.393, 454 103.400, 454 102 C 454 101.450, 453.325 101, 452.500 101 C 451.675 101, 450.996 100.662, 450.992 100.250 C 450.988 99.838, 449.975 98.992, 448.742 98.371 C 447.509 97.751, 444.626 96.296, 442.335 95.139 C 432.395 90.119, 422.978 87.854, 410.500 87.484 C 403.900 87.288, 396.925 87.453, 395 87.850 M 388.813 88.683 C 389.534 88.972, 390.397 88.936, 390.729 88.604 C 391.061 88.272, 390.471 88.036, 389.417 88.079 C 388.252 88.127, 388.015 88.364, 388.813 88.683 M 386 92.182 C 384.075 92.720, 380.025 93.851, 377 94.696 C 373.975 95.541, 366.428 98.661, 360.230 101.630 C 350.985 106.057, 347.738 108.237, 342.163 113.763 C 328.248 127.556, 317.218 147.481, 312.968 166.500 C 309.341 182.734, 309.035 188.279, 309.017 238.170 L 309 287.841 315.250 288.394 C 326.222 289.364, 494.779 292.260, 499.457 291.559 C 504.024 290.874, 505.857 289.648, 504.016 288.510 C 503.355 288.101, 502.994 273.334, 502.983 246.191 C 502.973 223.261, 502.515 200.227, 501.965 195.004 C 501.005 185.884, 497.995 172.244, 495.786 167 C 495.206 165.625, 494.394 163.600, 493.980 162.500 C 488.479 147.883, 479.558 133.892, 467.862 121.536 C 453.014 105.850, 442.138 99.587, 416.429 91.916 C 412.440 90.726, 390.525 90.918, 386 92.182 M 306.212 142.032 C 305.545 143.099, 305 144.879, 305 145.986 C 305 147.094, 304.550 148, 304 148 C 303.450 148, 303 149.125, 303 150.500 C 303 151.875, 302.550 153, 302 153 C 301.450 153, 301 154.350, 301 156 C 301 157.650, 300.550 159, 300 159 C 299.450 159, 299 160.575, 299 162.500 C 299 164.425, 298.550 166, 298 166 C 297.450 166, 296.968 167.463, 296.930 169.250 C 296.874 171.832, 296.702 172.097, 296.092 170.539 C 294.925 167.553, 292.952 190.960, 293.483 201.500 C 293.732 206.450, 294.392 218.600, 294.949 228.500 C 295.506 238.400, 296.043 252.575, 296.143 260 C 296.492 286.100, 297.870 261.142, 298.517 217 C 298.852 194.175, 299.525 174.600, 300.014 173.500 C 300.503 172.400, 301.083 169.250, 301.302 166.500 C 301.729 161.125, 305.327 146.933, 307.195 143.252 C 308.634 140.415, 307.838 139.428, 306.212 142.032 M 507.503 176.250 C 508.250 178.531, 510.086 287.965, 509.397 289.136 C 508.689 290.339, 514 290.721, 515.561 289.579 C 516.950 288.563, 517.084 283.094, 516.757 240.468 C 516.401 194.044, 516.316 192.259, 514.122 185 C 511.937 177.769, 509.746 174, 507.728 174 C 507.180 174, 507.083 174.966, 507.503 176.250 M 296.158 283 C 296.158 284.375, 296.385 284.938, 296.662 284.250 C 296.940 283.563, 296.940 282.438, 296.662 281.750 C 296.385 281.063, 296.158 281.625, 296.158 283 M 288.500 321.619 C 282.339 323.628, 279.638 325.130, 276.750 328.156 C 274.688 330.316, 273 332.720, 273 333.497 C 273 335.641, 279.322 336.469, 282.680 334.765 C 291.689 330.192, 297.263 327.709, 298.779 327.593 C 304.158 327.184, 310.156 320.215, 305.250 320.074 C 304.288 320.046, 301.925 319.796, 300 319.517 C 297.741 319.191, 293.663 319.936, 288.500 321.619 M 232.500 330.289 C 226.369 337.725, 223.148 343.640, 219.821 353.571 L 217.500 360.500 217.536 517.500 C 217.565 645.029, 217.826 675.955, 218.927 682.250 C 219.673 686.513, 220.669 690, 221.141 690 C 221.614 690, 222.011 645.112, 222.023 590.250 C 222.050 477.500, 222.710 385.898, 223.572 375.500 C 224.601 363.080, 228.057 349.202, 233.390 336.078 C 234.826 332.545, 236 329.508, 236 329.328 C 236 328.491, 233.392 329.208, 232.500 330.289 M 551.896 548.437 C 551.656 548.678, 543.368 549.410, 533.479 550.064 C 490.271 552.924, 489.559 553.036, 486.912 557.377 C 485.115 560.324, 485.007 563.006, 485.004 604.846 C 485 648.412, 485.037 649.244, 487.118 652.165 C 490.449 656.844, 492.611 657.183, 508.336 655.496 C 522.036 654.026, 526.888 653.517, 552.422 650.872 C 563.273 649.748, 564.640 649.377, 567.648 646.736 C 569.465 645.141, 571.410 642.185, 571.970 640.168 C 573.381 635.089, 573.348 559.048, 571.933 555.315 C 569.689 549.391, 567.322 548, 559.492 548 C 555.555 548, 552.137 548.197, 551.896 548.437 M 547.500 559.640 C 545.300 559.831, 532.925 560.710, 520 561.592 C 501.849 562.832, 496.102 563.552, 494.750 564.754 C 493.142 566.184, 493 569.366, 493 604.033 C 493 645.093, 492.910 644.459, 498.607 643.541 C 500.198 643.284, 514.250 641.842, 529.833 640.337 C 545.416 638.831, 558.765 637.127, 559.496 636.550 C 560.551 635.718, 560.897 627.621, 561.163 597.500 L 561.500 559.500 556.500 559.396 C 553.750 559.339, 549.700 559.449, 547.500 559.640 M 486.079 561.583 C 486.127 562.748, 486.364 562.985, 486.683 562.188 C 486.972 561.466, 486.936 560.603, 486.604 560.271 C 486.272 559.939, 486.036 560.529, 486.079 561.583" stroke="none" fill="#4f6cb0" fill-rule="evenodd"/>
</svg>